<svg xmlns="http://www.w3.org/2000/svg" width="24" height="24" viewBox="0 0 24 24"><defs><style>.a{fill:#fff;stroke:#fff;}.b{stroke:rgba(0,0,0,0);stroke-miterlimit:10;}.c{stroke:none;}.d{fill:none;}</style></defs><g class="a"><circle class="c" cx="12" cy="12" r="12"/><circle class="d" cx="12" cy="12" r="11.5"/></g><path class="b" d="M-1165.014-628.547a2.473,2.473,0,0,1-2.469-2.47v-7.168l-1.675,1.676a.5.5,0,0,1-.7,0,.493.493,0,0,1,0-.7l2.517-2.517a.493.493,0,0,1,.7,0l2.517,2.517a.494.494,0,0,1,0,.7.491.491,0,0,1-.349.144.494.494,0,0,1-.349-.144l-1.675-1.676v7.168a1.483,1.483,0,0,0,1.481,1.481h4.378a.494.494,0,0,1,.493.494.494.494,0,0,1-.493.494Zm8.755-.277-2.517-2.517a.492.492,0,0,1,0-.7.492.492,0,0,1,.7,0l1.674,1.674v-7.168a1.481,1.481,0,0,0-1.48-1.481h-4.376a.494.494,0,0,1-.494-.494.494.494,0,0,1,.494-.493h4.376a2.471,2.471,0,0,1,2.469,2.468v7.169l1.675-1.675a.493.493,0,0,1,.7,0,.493.493,0,0,1,0,.7l-2.518,2.517a.492.492,0,0,1-.349.145A.492.492,0,0,1-1156.259-628.824Z" transform="translate(1173 646.766)"/></svg>