<svg xmlns="http://www.w3.org/2000/svg" width="24" height="24" viewBox="0 0 24 24"><defs><style>.a{fill:#fff;stroke:#fff;}.b{stroke:rgba(0,0,0,0);stroke-miterlimit:10;}.c{stroke:none;}.d{fill:none;}</style></defs><g class="a"><circle class="c" cx="12" cy="12" r="12"/><circle class="d" cx="12" cy="12" r="11.5"/></g><path class="b" d="M-1248.551-627.551A1.451,1.451,0,0,1-1250-629v-3.573a.474.474,0,0,1,.474-.474.474.474,0,0,1,.474.474V-629a.5.5,0,0,0,.5.5h9.745a.5.5,0,0,0,.5-.5v-3.573a.474.474,0,0,1,.473-.474.474.474,0,0,1,.474.474V-629a1.45,1.45,0,0,1-1.448,1.448Zm4.4-4.389v-6.441l-2.351,2.352a.475.475,0,0,1-.67,0,.472.472,0,0,1,0-.67l3.16-3.161a.475.475,0,0,1,.671,0l3.161,3.161a.475.475,0,0,1,0,.67.472.472,0,0,1-.335.139.471.471,0,0,1-.336-.139l-2.352-2.352v6.441a.474.474,0,0,1-.474.474A.475.475,0,0,1-1244.153-631.94Z" transform="translate(1256 646)"/></svg>