<svg xmlns="http://www.w3.org/2000/svg" width="24" height="24" viewBox="0 0 24 24"><defs><style>.a{fill:#fff;stroke:#fff;}.b{stroke:none;}.c{fill:none;}</style></defs><g class="a"><circle class="b" cx="12" cy="12" r="12"/><circle class="c" cx="12" cy="12" r="11.5"/></g><path d="M92.21,364.728h0l-2.73-.007h0a5.081,5.081,0,0,0-5.135,5.136,4.875,4.875,0,0,0,4.914,4.851v2.52a.568.568,0,0,0,.078.265.493.493,0,0,0,.682.15c.173-.11,4.26-2.724,5.323-3.624a5.558,5.558,0,0,0,2-4.154v-.011A5.079,5.079,0,0,0,92.21,364.728Zm2.493,8.538c-.747.632-3.2,2.242-4.458,3.056v-2.1a.494.494,0,0,0-.494-.493h-.262a3.892,3.892,0,0,1-4.158-3.874,4.1,4.1,0,0,1,4.147-4.148l2.729.006h0a4.1,4.1,0,0,1,4.148,4.144A4.566,4.566,0,0,1,94.7,373.266Z" transform="translate(-78.343 -358.721)"/></svg>