<svg xmlns="http://www.w3.org/2000/svg" width="24" height="24" viewBox="0 0 24 24"><defs><style>.a{fill:#fff;stroke:#fff;}.b{stroke:none;}.c{fill:none;}</style></defs><g class="a"><circle class="b" cx="12" cy="12" r="12"/><circle class="c" cx="12" cy="12" r="11.5"/></g><path d="M321.468,377.495h-.009c-1.7-.032-6.606-4.464-6.606-8.662a3.775,3.775,0,0,1,3.557-3.788,3.853,3.853,0,0,1,3.058,1.8,3.854,3.854,0,0,1,3.058-1.8,3.775,3.775,0,0,1,3.557,3.788c0,4.2-4.906,8.63-6.606,8.662Zm-3.058-11.462a2.763,2.763,0,0,0-2.569,2.8c0,3.78,4.629,7.633,5.627,7.674,1-.041,5.628-3.894,5.628-7.674a2.764,2.764,0,0,0-2.57-2.8c-1.664,0-2.593,1.932-2.6,1.951a.514.514,0,0,1-.913,0C321,367.965,320.075,366.033,318.41,366.033Z" transform="translate(-309.468 -359.27)"/></svg>