<?xml version="1.0" encoding="UTF-8" standalone="no"?>
<svg
   xmlns:dc="http://purl.org/dc/elements/1.1/"
   xmlns:cc="http://creativecommons.org/ns#"
   xmlns:rdf="http://www.w3.org/1999/02/22-rdf-syntax-ns#"
   xmlns:svg="http://www.w3.org/2000/svg"
   xmlns="http://www.w3.org/2000/svg"
   xmlns:sodipodi="http://sodipodi.sourceforge.net/DTD/sodipodi-0.dtd"
   xmlns:inkscape="http://www.inkscape.org/namespaces/inkscape"
   width="24"
   height="24"
   viewBox="0 0 24 24"
   version="1.1"
   id="svg1558"
   sodipodi:docname="icon-sharing.svg"
   inkscape:version="1.0.1 (3bc2e813f5, 2020-09-07)">
  <metadata
     id="metadata1562">
    <rdf:RDF>
      <cc:Work
         rdf:about="">
        <dc:format>image/svg+xml</dc:format>
        <dc:type
           rdf:resource="http://purl.org/dc/dcmitype/StillImage" />
        <dc:title></dc:title>
      </cc:Work>
    </rdf:RDF>
  </metadata>
  <sodipodi:namedview
     pagecolor="#ffffff"
     bordercolor="#666666"
     borderopacity="1"
     objecttolerance="10"
     gridtolerance="10"
     guidetolerance="10"
     inkscape:pageopacity="0"
     inkscape:pageshadow="2"
     inkscape:window-width="1916"
     inkscape:window-height="980"
     id="namedview1560"
     showgrid="false"
     inkscape:zoom="30.625"
     inkscape:cx="3.9020408"
     inkscape:cy="12"
     inkscape:window-x="0"
     inkscape:window-y="80"
     inkscape:window-maximized="0"
     inkscape:current-layer="svg1558" />
  <defs
     id="defs1552">
    <style
       id="style1550">.a{fill:none;}</style>
  </defs>
  <rect
     class="a"
     width="24"
     height="24"
     id="rect1554" />
  <path
     d="M15,14.137a2.906,2.906,0,0,0-1.96.773L5.91,10.743a3.3,3.3,0,0,0,.09-.7,3.3,3.3,0,0,0-.09-.7l7.05-4.127A2.99,2.99,0,0,0,18,3.012a3,3,0,1,0-6,0,3.3,3.3,0,0,0,.09.7L5.04,7.841a3.012,3.012,0,1,0,0,4.4l7.12,4.177a2.843,2.843,0,0,0-.08.653A2.92,2.92,0,1,0,15,14.137Z"
     transform="translate(3 2)"
     id="path1556"
     style="fill:#fff;fill-opacity:1" />
</svg>
