<svg xmlns="http://www.w3.org/2000/svg" width="58" height="58" viewBox="0 0 58 58"><defs><style>.a{fill:#00cdc7;}.b{fill:#fff;}</style></defs><circle class="a" cx="29" cy="29" r="29"/><g transform="translate(6.349 13.196)"><path class="b" d="M448.485,241.775l-.4-.392-.767-.758-.845.835-.319.315,1.164,2.083Z" transform="translate(-424.524 -228.899)"/><path class="b" d="M452.327,241.833a1.425,1.425,0,0,0,.389-.986v-1.618h-1.545a1.354,1.354,0,0,0-1.316,1.218,1.455,1.455,0,0,0-.017.179v1.618h1.544A1.3,1.3,0,0,0,452.327,241.833Z" transform="translate(-423.758 -229.19)"/><path class="b" d="M472.962,244.545a5.8,5.8,0,0,0-.343-.5A11.909,11.909,0,0,0,467.3,240.4a28.185,28.185,0,0,0-5.662-1.461,13.064,13.064,0,0,0-.667-1.5,12.421,12.421,0,0,0-1-1.583c-.253-.34-.517-.671-.8-.985,1.564-.419,2.721-3.805,2.721-3.805h-3.438v2.78a11.256,11.256,0,0,0-14.388-.61v-2.17h-3.839a3.856,3.856,0,0,0,2.158,3.6,12.365,12.365,0,0,0-2.234,3.258,10.348,10.348,0,0,0-.7,2.074l0,.023a42.735,42.735,0,0,0-8.4,2.767l-.013.006-.013.007a1.054,1.054,0,0,0-.61,1.222l.888,3.55a9.411,9.411,0,0,0-1.672,1.6,5.846,5.846,0,0,0-1.013,5.754,6.507,6.507,0,0,0,.64,1.388,9.861,9.861,0,0,0,3.039,3.035,16.523,16.523,0,0,0,3.915,1.856q.426.141.877.269t.912.238c.37.089.749.173,1.142.248.75.146,1.545.265,2.38.356,1.073.118,2.212.195,3.428.214.5.007,1.015,0,1.538-.006q1.113-.022,2.3-.1c1.634-.109,3.372-.3,5.23-.588-.03.031-.059.064-.088.1l3.423-.691h0q.444-.091.892-.187a26.188,26.188,0,0,0,7.567-2.855,22.577,22.577,0,0,0,2.016-1.305c.423-.307.829-.622,1.211-.946a15.4,15.4,0,0,0,3.687-4.415,8.672,8.672,0,0,0,1.08-3.621A5.824,5.824,0,0,0,472.962,244.545Zm-22.29-11.332a9.307,9.307,0,0,1,5.053,1.487c-.019,0-.037,0-.056,0a6.532,6.532,0,0,0-4.618,1.927,6.535,6.535,0,0,0-4.618-1.927,6.38,6.38,0,0,0-.905.072A9.306,9.306,0,0,1,450.672,233.213Zm-4.963,3.655a4.49,4.49,0,0,1,3.672,1.115,4.841,4.841,0,0,1,.506.526,4.913,4.913,0,0,1,.724,1.187,4.779,4.779,0,0,1,.173.457.215.215,0,0,0,.416,0,5.288,5.288,0,0,1,.19-.494,4.9,4.9,0,0,1,.791-1.252,4.524,4.524,0,0,1,4.042-1.544,4.586,4.586,0,0,1,3,1.763,4.959,4.959,0,0,1,.98,2.268,5.21,5.21,0,0,1-.068,1.927,5.1,5.1,0,0,1-.441,1.206,4.666,4.666,0,0,1-3.452,2.533H446.113v-.013a4.6,4.6,0,0,1-3.5-2,4.957,4.957,0,0,1-.6-1.181,5.1,5.1,0,0,1-.25-2.3c.01-.083.025-.164.04-.246a4.933,4.933,0,0,1,.449-1.37l.01-.021A4.674,4.674,0,0,1,445.71,236.868Zm19.62,11.953c0,.058,0,.117,0,.176a5.062,5.062,0,0,1-2.2,3.706,11.3,11.3,0,0,1-1.9,1.184c.159-.451.31-.9.445-1.356a24.009,24.009,0,0,0,.951-5.242c.047-.731.066-1.472.056-2.216a5.659,5.659,0,0,1,1.834,1.427,3.568,3.568,0,0,1,.274.39,3.772,3.772,0,0,1,.324.683A3.727,3.727,0,0,1,465.329,248.821Zm-15.655,7.791a13.2,13.2,0,0,0-3.125-7.9H456.3a1.979,1.979,0,0,0,.784-.162,6.631,6.631,0,0,0,3.53-2.133,22.255,22.255,0,0,1-1.7,7.712c-.115.283-.236.563-.36.841a30.5,30.5,0,0,1-3.314.853c-.452.091-.921.175-1.413.259C452.313,256.331,450.934,256.5,449.674,256.613Zm-8.423-9.017c3.5,1.2,6.095,4.815,6.358,9.143-.387.013-.765.023-1.125.023a20.435,20.435,0,0,1-5.085-.544Zm-8.76-3.916a38.488,38.488,0,0,1,6.692-2.279c-.021.146-.041.294-.058.441v2.222c-1.162.321-2.262.677-3.282,1.072a22.6,22.6,0,0,0-2.68,1.226Zm3.482,15.979a9.9,9.9,0,0,1-4.739-3.754,5.791,5.791,0,0,1-.558-1.206,5.226,5.226,0,0,1,0-3.533,8.117,8.117,0,0,1,4.064-3.979,24.675,24.675,0,0,1,4.387-1.75v9.914a6.23,6.23,0,0,1-.834-.541,4.19,4.19,0,0,1-.968-1.036c-.016-.022-.03-.046-.045-.069a3.256,3.256,0,0,1-.181-.343,3.132,3.132,0,0,1-.24-.777c-.014-.088-.025-.172-.031-.248a2.266,2.266,0,0,1,0-.419.729.729,0,0,1,.012-.108l0-.022v0h0c.073-.336-.337-.64-.916-.685a1.763,1.763,0,0,0-.483.029.827.827,0,0,0-.7.5,2.783,2.783,0,0,0-.033.765,3.868,3.868,0,0,0,.21.953l0,.025,1.559,6.495C436.309,259.8,436.138,259.73,435.973,259.659Zm22.44.022c-.3.077-.61.151-.921.217s-.593.124-.886.184c-.445.089-.881.172-1.312.251a60.944,60.944,0,0,1-6.1.819q-1.14.091-2.2.128c-.313.01-.624.019-.926.023a34.015,34.015,0,0,1-4.589-.24c-.843-.105-1.629-.243-2.359-.407l-.31-.074a1.146,1.146,0,0,0-.021-.153l-.988-4.117a10.817,10.817,0,0,0,1.32.585c.2.076.414.149.637.219a16.3,16.3,0,0,0,1.661.421,24.359,24.359,0,0,0,4.252.443q.926.022,1.949-.011.988-.031,2.067-.117c1.444-.117,3.015-.311,4.722-.593.529-.087,1.036-.181,1.526-.28.642-.129,1.248-.269,1.828-.417a28.473,28.473,0,0,0,2.749-.841,19.762,19.762,0,0,0,2.14-.922,10.862,10.862,0,0,0,3.43-2.568l.75,3.374A22.477,22.477,0,0,1,458.413,259.681Zm13.115-10.741a11.007,11.007,0,0,1-2.89,5.018l-1.2-5.406a4.618,4.618,0,0,0-1-2.563,8.594,8.594,0,0,0-3.826-2.472,18.449,18.449,0,0,0-.541-3.226,23.631,23.631,0,0,1,4.059,1.123,10.171,10.171,0,0,1,4.558,3.115c.1.137.2.278.284.421A5.328,5.328,0,0,1,471.528,248.94Z" transform="translate(-428.254 -230.921)"/><path class="b" d="M443.056,242.209a1.28,1.28,0,0,0,.29.035h1.545v-1.618a1.367,1.367,0,0,0-1.334-1.4h-1.544v1.618a1.44,1.44,0,0,0,.024.253A1.369,1.369,0,0,0,443.056,242.209Z" transform="translate(-425.388 -229.19)"/></g></svg>